<svg xmlns="http://www.w3.org/2000/svg" width="200" height="160" viewBox="0 0 200 160" fill="none">
  <!-- Empty Crops — a seedling emerging from soil. -->
  <!-- Soil mound -->
  <path d="M60 118 C70 108 90 104 100 104 C110 104 130 108 140 118 C140 122 130 126 100 126 C70 126 60 122 60 118 Z" fill="#e8e2d6"/>
  <path d="M68 116 C78 110 90 108 100 108 C110 108 122 110 132 116" stroke="#6b7b4f" stroke-width="1.4" stroke-opacity="0.4" fill="none" stroke-linecap="round"/>
  <!-- Stem -->
  <path d="M100 110 L100 70" stroke="#5c7a55" stroke-width="2.4" stroke-linecap="round"/>
  <!-- Leaves -->
  <path d="M100 86 C88 86 80 78 80 68 C90 66 98 74 100 86 Z" fill="#6b7b4f"/>
  <path d="M100 78 C110 78 117 71 117 61 C108 60 101 67 100 78 Z" fill="#9aae74"/>
  <!-- Seed/bud -->
  <circle cx="100" cy="68" r="3.4" fill="#c97b4a"/>
  <!-- Water drop -->
  <path d="M140 56 C140 56 134 64 134 69 C134 73 137 75 140 75 C143 75 146 73 146 69 C146 64 140 56 140 56 Z" fill="#c9a24b" fill-opacity="0.35" stroke="#c9a24b" stroke-width="1.3"/>
  <!-- Sun -->
  <circle cx="58" cy="48" r="8" fill="#c9a24b" fill-opacity="0.3" stroke="#c9a24b" stroke-width="1.4"/>
  <g stroke="#c9a24b" stroke-width="1.3" stroke-linecap="round" stroke-opacity="0.5">
    <path d="M58 33 L58 36"/><path d="M58 60 L58 63"/>
    <path d="M43 48 L46 48"/><path d="M70 48 L73 48"/>
  </g>
</svg>
